# xmcd
#
# Track frame offsets:
#	150
#	14646
#	27769
#	44238
#	59102
#	77027
#	94279
#	115225
#	129046
#	140036
#	157107
#	169438
#	194155
#	209072
#	221133
#	235805
#	252743
#	271476
#	283086
#	293049
#
# Disc length: 4167 seconds
#
# Revision: 1
# Processed by: cddbd v1.4PL0 Copyright (c) Steve Scherf et al.
# Submitted via: audiograbber 1.82.02
#
DISCID=54104514
DTITLE=Various Artist - Rural Aid Appeal Vol 22
DYEAR=1900
DGENRE=Country
TTITLE0=Lee Kernaghan - Something In The Water
TTITLE1=Melinda Schneider - He Still Calls Her His Angel
TTITLE2=Travis Sinclair - My Baby Lost My Rig
TTITLE3=Wild Turkey Band - Reality Or A Dream
TTITLE4=The Harrisons - Down The Road
TTITLE5=Brooke Schubert - Without You
TTITLE6=Shane Hogan - d'ARCY Doyle
TTITLE7=Sovereign - Tooraweenah Cowgirl
TTITLE8=Fred Eaglesmith - Bailing Again
TTITLE9=Luella - Away
TTITLE10=Royden Donohoe - Born To Be A Heartbreaker
TTITLE11=Southbound - It's Love
TTITLE12=Dave Gleeson - Wanted Man
TTITLE13=Laurel Edwards - C'Mon Down
TTITLE14=Brett Goodwin - Lessons In Life
TTITLE15=Anita Ree - First Winter Rains
TTITLE16=Todd Williams - Love of My Life
TTITLE17=Warren Williams - What a Place
TTITLE18=Lonrach - Mountain Road
TTITLE19=Red Hot Pocker Dots - Concrete Jungle Urban Cowgirl
EXTD=
EXTT0=
EXTT1=
EXTT2=
EXTT3=
EXTT4=
EXTT5=
EXTT6=
EXTT7=
EXTT8=
EXTT9=
EXTT10=
EXTT11=
EXTT12=
EXTT13=
EXTT14=
EXTT15=
EXTT16=
EXTT17=
EXTT18=
EXTT19=
PLAYORDER=
